<?xml version="1.0" standalone="no"?>
<!DOCTYPE svg PUBLIC "-//W3C//DTD SVG 1.1//EN" "http://www.w3.org/Graphics/SVG/1.1/DTD/svg11.dtd" >
<svg>
<metadata>
Created by FontForge 20090914 at Wed Oct  1 15:55:17 2014
 By www-data
Copyright &#194;&#169; 1999 by Matthew Welch. All Rights Reserved.
</metadata>
<defs>
<font id="WhiteRabbit" horiz-adv-x="1200" >
  <font-face 
    font-family="White Rabbit"
    font-weight="400"
    font-stretch="normal"
    units-per-em="2100"
    panose-1="0 0 0 9 0 0 0 0 0 0"
    ascent="1680"
    descent="-420"
    x-height="1000"
    cap-height="1400"
    bbox="100 -200 1100 1400"
    underline-thickness="0"
    underline-position="0"
    unicode-range="U+0020-U+007F"
  />
<missing-glyph 
 />
    <glyph glyph-name=".notdef" 
 />
    <glyph glyph-name="space" unicode=" " 
 />
    <glyph glyph-name="exclam" unicode="!" 
d="M400 1400h200c26.667 0 50 -10 70 -30s30 -43.333 30 -70v-600c0 -26.667 -10 -50 -30 -70s-43.333 -30 -70 -30h-200c-26.667 0 -50 10 -70 30s-30 43.333 -30 70v600c0 26.667 10 50 30 70s43.333 30 70 30zM400 400h200c26.667 0 50 -10 70 -30s30 -43.333 30 -70
v-200c0 -26.667 -10 -50 -30 -70s-43.333 -30 -70 -30h-200c-26.667 0 -50 10 -70 30s-30 43.333 -30 70v200c0 26.667 10 50 30 70s43.333 30 70 30z" />
    <glyph glyph-name="quotedbl" unicode="&#x22;" 
d="M700 1300c0 26.667 10 50 30 70s43.333 30 70 30s50 -10 70 -30s30 -43.333 30 -70v-200c0 -26.667 -10 -50 -30 -70s-43.333 -30 -70 -30s-50 10 -70 30s-30 43.333 -30 70v200zM300 1300c0 26.667 10 50 30 70s43.333 30 70 30s50 -10 70 -30s30 -43.333 30 -70v-200
c0 -26.667 -10 -50 -30 -70s-43.333 -30 -70 -30s-50 10 -70 30s-30 43.333 -30 70v200z" />
    <glyph glyph-name="numbersign" unicode="#" 
d="M800 0c-26.667 0 -50 10 -70 30s-30 43.333 -30 70v300h-200v-300c0 -26.667 -10 -50 -30 -70s-43.333 -30 -70 -30s-50 10 -70 30s-30 43.333 -30 70v300h-100c-26.667 0 -50 10 -70 30s-30 43.333 -30 70s10 50 30 70s43.333 30 70 30h100v200h-100
c-26.667 0 -50 10 -70 30s-30 43.333 -30 70s10 50 30 70s43.333 30 70 30h100v300c0 26.667 10 50 30 70s43.333 30 70 30s50 -10 70 -30s30 -43.333 30 -70v-300h200v300c0 26.667 10 50 30 70s43.333 30 70 30s50 -10 70 -30s30 -43.333 30 -70v-300h100
c26.667 0 50 -10 70 -30s30 -43.333 30 -70s-10 -50 -30 -70s-43.333 -30 -70 -30h-100v-200h100c26.667 0 50 -10 70 -30s30 -43.333 30 -70s-10 -50 -30 -70s-43.333 -30 -70 -30h-100v-300c0 -26.667 -10 -50 -30 -70s-43.333 -30 -70 -30zM500 800v-200h200v200h-200z
" />
    <glyph glyph-name="dollar" unicode="$" 
d="M600 0c-26.667 0 -50 10 -70 30s-30 43.333 -30 70v100h-300c-26.667 0 -50 10 -70 30s-30 43.333 -30 70s10 50 30 70s43.333 30 70 30h300v200h-100c-80 0 -150 30 -210 90s-90 130 -90 210s30 150 90 210s130 90 210 90h100v100c0 26.667 10 50 30 70s43.333 30 70 30
s50 -10 70 -30s30 -43.333 30 -70v-100h300c26.667 0 50 -10 70 -30s30 -43.333 30 -70s-10 -50 -30 -70s-43.333 -30 -70 -30h-300v-200h100c80 0 150 -30 210 -90s90 -130 90 -210s-30 -150 -90 -210s-130 -90 -210 -90h-100v-100c0 -26.667 -10 -50 -30 -70
s-43.333 -30 -70 -30zM300 900c0 -26.667 10 -50 30 -70s43.333 -30 70 -30h100v200h-100c-26.667 0 -50 -10 -70 -30s-30 -43.333 -30 -70zM800 600h-100v-200h100c26.667 0 50 10 70 30s30 43.333 30 70s-10 50 -30 70s-43.333 30 -70 30z" />
    <glyph glyph-name="percent" unicode="%" 
d="M800 0c-26.667 0 -50 10 -70 30s-30 43.333 -30 70v200c0 26.667 10 50 30 70s43.333 30 70 30h200c26.667 0 50 -10 70 -30s30 -43.333 30 -70v-200c0 -26.667 -10 -50 -30 -70s-43.333 -30 -70 -30h-200zM200 1000c-26.667 0 -50 10 -70 30s-30 43.333 -30 70v200
c0 26.667 10 50 30 70s43.333 30 70 30h200c26.667 0 50 -10 70 -30s30 -43.333 30 -70v-200c0 -26.667 -10 -50 -30 -70s-43.333 -30 -70 -30h-200zM200 0c-26.667 0 -50 10 -70 30s-30 43.333 -30 70v200c0 26.667 10 50 30 70l770 774v156c0 26.667 10 50 30 70
s43.333 30 70 30s50 -10 70 -30s30 -43.333 30 -70v-200c0 -26.667 -10 -50 -30 -70l-770 -766v-164c0 -26.667 -10 -50 -30 -70s-43.333 -30 -70 -30z" />
    <glyph glyph-name="ampersand" unicode="&#x26;" 
d="M1000 0c-26.667 0 -50 10 -70 30l-134 130l-126 -130c-20 -20 -43.333 -30 -70 -30h-200c-80 0 -150 30 -210 90s-90 130 -90 210v200c0 26.667 10 50 30 70l130 130l-130 130c-20 20 -30 43.333 -30 70v200c0 80 30 150 90 210s130 90 210 90s150 -30 210 -90
s90 -130 90 -210v-200c0 -26.667 -10 -50 -30 -70l-134 -130l134 -130l130 -130l130 130c20 20 43.333 30 70 30s50 -10 70 -30s30 -43.333 30 -70s-10 -50 -30 -70l-130 -126l130 -134c20 -20 30 -43.333 30 -70s-10 -50 -30 -70s-43.333 -30 -70 -30zM300 944l100 -100
l100 100v156c0 26.667 -10 50 -30 70s-43.333 30 -70 30s-50 -10 -70 -30s-30 -43.333 -30 -70v-156zM660 300l-260 260l-100 -104v-156c0 -26.667 10 -50 30 -70s43.333 -30 70 -30h160z" />
    <glyph glyph-name="quotesingle" unicode="'" 
d="M500 1300c0 26.667 10 50 30 70s43.333 30 70 30s50 -10 70 -30s30 -43.333 30 -70v-200c0 -26.667 -10 -50 -30 -70s-43.333 -30 -70 -30s-50 10 -70 30s-30 43.333 -30 70v200z" />
    <glyph glyph-name="parenleft" unicode="(" 
d="M800 0c-80 0 -150 30 -210 90s-90 130 -90 210v800c0 80 30 150 90 210s130 90 210 90c26.667 0 50 -10 70 -30s30 -43.333 30 -70s-10 -50 -30 -70s-43.333 -30 -70 -30s-50 -10 -70 -30s-30 -43.333 -30 -70v-800c0 -26.667 10 -50 30 -70s43.333 -30 70 -30
s50 -10 70 -30s30 -43.333 30 -70s-10 -50 -30 -70s-43.333 -30 -70 -30z" />
    <glyph glyph-name="parenright" unicode=")" 
d="M400 0c-26.667 0 -50 10 -70 30s-30 43.333 -30 70s10 50 30 70s43.333 30 70 30s50 10 70 30s30 43.333 30 70v800c0 26.667 -10 50 -30 70s-43.333 30 -70 30s-50 10 -70 30s-30 43.333 -30 70s10 50 30 70s43.333 30 70 30c80 0 150 -30 210 -90s90 -130 90 -210v-800
c0 -80 -30 -150 -90 -210s-130 -90 -210 -90z" />
    <glyph glyph-name="asterisk" unicode="*" 
d="M400 400c-26.667 0 -50 10 -70 30s-30 43.333 -30 70s10 50 30 70l122 230h-252c-26.667 0 -50 10 -70 30s-30 43.333 -30 70s10 50 30 70s43.333 30 70 30h252l-122 230c-20 20 -30 43.333 -30 70s10 50 30 70s43.333 30 70 30s50 -10 70 -30l130 -262l130 262
c20 20 43.333 30 70 30s50 -10 70 -30s30 -43.333 30 -70s-10 -50 -30 -70l-122 -230h252c26.667 0 50 -10 70 -30s30 -43.333 30 -70s-10 -50 -30 -70s-43.333 -30 -70 -30h-252l122 -230c20 -20 30 -43.333 30 -70s-10 -50 -30 -70s-43.333 -30 -70 -30s-50 10 -70 30
l-130 262l-130 -262c-20 -20 -43.333 -30 -70 -30z" />
    <glyph glyph-name="plus" unicode="+" 
d="M600 200c-26.667 0 -50 10 -70 30s-30 43.333 -30 70v300h-300c-26.667 0 -50 10 -70 30s-30 43.333 -30 70s10 50 30 70s43.333 30 70 30h300v300c0 26.667 10 50 30 70s43.333 30 70 30s50 -10 70 -30s30 -43.333 30 -70v-300h300c26.667 0 50 -10 70 -30
s30 -43.333 30 -70s-10 -50 -30 -70s-43.333 -30 -70 -30h-300v-300c0 -26.667 -10 -50 -30 -70s-43.333 -30 -70 -30z" />
    <glyph glyph-name="comma" unicode="," 
d="M400 400h200c26.667 0 50 -10 70 -30s30 -43.333 30 -70v-200c0 -26.667 -10 -50 -30 -70l-200 -200c-20 -20 -43.333 -30 -70 -30s-50 10 -70 30s-30 43.333 -30 70v400c0 26.667 10 50 30 70s43.333 30 70 30z" />
    <glyph glyph-name="hyphen" unicode="-" 
d="M200 600c-26.667 0 -50 10 -70 30s-30 43.333 -30 70s10 50 30 70s43.333 30 70 30h800c26.667 0 50 -10 70 -30s30 -43.333 30 -70s-10 -50 -30 -70s-43.333 -30 -70 -30h-800z" />
    <glyph glyph-name="period" unicode="." 
d="M400 400h200c26.667 0 50 -10 70 -30s30 -43.333 30 -70v-200c0 -26.667 -10 -50 -30 -70s-43.333 -30 -70 -30h-200c-26.667 0 -50 10 -70 30s-30 43.333 -30 70v200c0 26.667 10 50 30 70s43.333 30 70 30z" />
    <glyph glyph-name="slash" unicode="/" 
d="M200 0c-26.667 0 -50 10 -70 30s-30 43.333 -30 70v200c0 26.667 10 50 30 70l770 774v156c0 26.667 10 50 30 70s43.333 30 70 30s50 -10 70 -30s30 -43.333 30 -70v-200c0 -26.667 -10 -50 -30 -70l-770 -766v-164c0 -26.667 -10 -50 -30 -70s-43.333 -30 -70 -30z" />
    <glyph glyph-name="zero" unicode="0" 
d="M400 0c-80 0 -150 30 -210 90s-90 130 -90 210v800c0 80 30 150 90 210s130 90 210 90h400c80 0 150 -30 210 -90s90 -130 90 -210v-800c0 -80 -30 -150 -90 -210s-130 -90 -210 -90h-400zM300 300c0 -26.667 10 -50 30 -70s43.333 -30 70 -30h400c26.667 0 50 10 70 30
s30 43.333 30 70v540zM300 560l600 540c0 26.667 -10 50 -30 70s-43.333 30 -70 30h-400c-26.667 0 -50 -10 -70 -30s-30 -43.333 -30 -70v-540z" />
    <glyph glyph-name="one" unicode="1" 
d="M400 1000c-26.667 0 -50 10 -70 30s-30 43.333 -30 70s10 50 30 70l200 200c20 20 43.333 30 70 30s50 -10 70 -30s30 -43.333 30 -70v-1100h100c26.667 0 50 -10 70 -30s30 -43.333 30 -70s-10 -50 -30 -70s-43.333 -30 -70 -30h-400c-26.667 0 -50 10 -70 30
s-30 43.333 -30 70s10 50 30 70s43.333 30 70 30h100v864l-30 -34c-20 -20 -43.333 -30 -70 -30z" />
    <glyph glyph-name="two" unicode="2" 
d="M200 1000c-26.667 0 -50 10 -70 30s-30 43.333 -30 70c0 80 30 150 90 210s130 90 210 90h400c80 0 150 -30 210 -90s90 -130 90 -210v-200c0 -26.667 -10 -50 -30 -70l-634 -630h564c26.667 0 50 -10 70 -30s30 -43.333 30 -70s-10 -50 -30 -70s-43.333 -30 -70 -30
h-800c-26.667 0 -50 10 -70 30s-30 43.333 -30 70s10 50 30 70l770 774v156c0 26.667 -10 50 -30 70s-43.333 30 -70 30h-400c-26.667 0 -50 -10 -70 -30s-30 -43.333 -30 -70s-10 -50 -30 -70s-43.333 -30 -70 -30z" />
    <glyph glyph-name="three" unicode="3" 
d="M800 0h-400c-80 0 -150 30 -210 90s-90 130 -90 210c0 26.667 10 50 30 70s43.333 30 70 30s50 -10 70 -30s30 -43.333 30 -70s10 -50 30 -70s43.333 -30 70 -30h400c26.667 0 50 10 70 30s30 43.333 30 70v200c0 26.667 -10 50 -30 70s-43.333 30 -70 30h-200
c-26.667 0 -50 10 -70 30s-30 43.333 -30 70s10 50 30 70s43.333 30 70 30h200c26.667 0 50 10 70 30s30 43.333 30 70v200c0 26.667 -10 50 -30 70s-43.333 30 -70 30h-400c-26.667 0 -50 -10 -70 -30s-30 -43.333 -30 -70s-10 -50 -30 -70s-43.333 -30 -70 -30
s-50 10 -70 30s-30 43.333 -30 70c0 80 30 150 90 210s130 90 210 90h400c80 0 150 -30 210 -90s90 -130 90 -210v-200c0 -80 -30 -150 -90 -210c60 -46.667 90 -110 90 -190v-200c0 -80 -30 -150 -90 -210s-130 -90 -210 -90z" />
    <glyph glyph-name="four" unicode="4" 
d="M300 600h400v700c0 26.667 10 50 30 70s43.333 30 70 30s50 -10 70 -30s30 -43.333 30 -70v-700h100c26.667 0 50 -10 70 -30s30 -43.333 30 -70s-10 -50 -30 -70s-43.333 -30 -70 -30h-100v-300c0 -26.667 -10 -50 -30 -70s-43.333 -30 -70 -30s-50 10 -70 30
s-30 43.333 -30 70v300h-500c-26.667 0 -50 10 -70 30s-30 43.333 -30 70v600c0 26.667 10 50 30 70s43.333 30 70 30s50 -10 70 -30s30 -43.333 30 -70v-500z" />
    <glyph glyph-name="five" unicode="5" 
d="M200 600c-26.667 0 -50 10 -70 30s-30 43.333 -30 70v600c0 26.667 10 50 30 70s43.333 30 70 30h800c26.667 0 50 -10 70 -30s30 -43.333 30 -70s-10 -50 -30 -70s-43.333 -30 -70 -30h-700v-400h500c80 0 150 -30 210 -90s90 -130 90 -210v-200
c0 -80 -30 -150 -90 -210s-130 -90 -210 -90h-600c-26.667 0 -50 10 -70 30s-30 43.333 -30 70s10 50 30 70s43.333 30 70 30h600c26.667 0 50 10 70 30s30 43.333 30 70v200c0 26.667 -10 50 -30 70s-43.333 30 -70 30h-600z" />
    <glyph glyph-name="six" unicode="6" 
d="M400 0c-80 0 -150 29.999 -210 89.999s-90 130 -90 210v800c0 80 30 150 90 210s130 90 210 90h400c26.667 0 50 -10 70 -30s30 -43.333 30 -70s-10 -50 -30 -70s-43.333 -30 -70 -30h-400c-26.667 0 -50 -10 -70 -30s-30 -43.333 -30 -70v-300h500
c80 0 150 -26.667 210 -80s90 -126.666 90 -219.999v-200c0 -80 -30 -150 -90 -210s-130 -90 -210 -90h-400zM300 599.999v-300c0 -26.667 10 -50 30 -70s43.333 -30 70 -30h400c26.667 0 50 10 70 30s30 43.333 30 70v200c0 26.667 -10 50 -30 70s-43.333 30 -70 30h-500z
" />
    <glyph glyph-name="seven" unicode="7" 
d="M200 0c-26.667 0 -50 10 -70 30s-30 43.333 -30 70s10 50 30 70l770 774v256h-700c-26.667 0 -50 10 -70 30s-30 43.333 -30 70s10 50 30 70s43.333 30 70 30h800c26.667 0 50 -10 70 -30s30 -43.333 30 -70v-400c0 -26.667 -10 -50 -30 -70l-800 -800
c-20 -20 -43.333 -30 -70 -30z" />
    <glyph glyph-name="eight" unicode="8" 
d="M100 300v200c0 80 30 150 90 210c-60 46.667 -90 110 -90 190v200c0 80 30 150 90 210s130 90 210 90h400c80 0 150 -30 210 -90s90 -130 90 -210v-200c0 -80 -30 -150 -90 -210c60 -46.667 90 -110 90 -190v-200c0 -80 -30 -150 -90 -210s-130 -90 -210 -90h-400
c-80 0 -150 30 -210 90s-90 130 -90 210zM800 800c26.667 0 50 10 70 30s30 43.333 30 70v200c0 26.667 -10 50 -30 70s-43.333 30 -70 30h-400c-26.667 0 -50 -10 -70 -30s-30 -43.333 -30 -70v-200c0 -26.667 10 -50 30 -70s43.333 -30 70 -30h400zM900 500
c0 26.667 -10 50 -30 70s-43.333 30 -70 30h-400c-26.667 0 -50 -10 -70 -30s-30 -43.333 -30 -70v-200c0 -26.667 10 -50 30 -70s43.333 -30 70 -30h400c26.667 0 50 10 70 30s30 43.333 30 70v200z" />
    <glyph glyph-name="nine" unicode="9" 
d="M800 1400c80 0 150 -29.999 210 -89.999s90 -130 90 -210v-800c0 -80 -30 -150 -90 -210s-130 -90 -210 -90h-600c-26.667 0 -50 10 -70 30s-30 43.333 -30 70s10 50 30 70s43.333 30 70 30h600c26.667 0 50 10 70 30s30 43.333 30 70v300h-500
c-80 0 -150 26.667 -210 80s-90 126.666 -90 219.999v200c0 80 30 150 90 210s130 90 210 90h400zM900 800.001v300c0 26.667 -10 50 -30 70s-43.333 30 -70 30h-400c-26.667 0 -50 -10 -70 -30s-30 -43.333 -30 -70v-200c0 -26.667 10 -50 30 -70s43.333 -30 70 -30h500z
" />
    <glyph glyph-name="colon" unicode=":" 
d="M400 1200h200c26.667 0 50 -10 70 -30s30 -43.333 30 -70v-200c0 -26.667 -10 -50 -30 -70s-43.333 -30 -70 -30h-200c-26.667 0 -50 10 -70 30s-30 43.333 -30 70v200c0 26.667 10 50 30 70s43.333 30 70 30zM400 400h200c26.667 0 50 -10 70 -30s30 -43.333 30 -70
v-200c0 -26.667 -10 -50 -30 -70s-43.333 -30 -70 -30h-200c-26.667 0 -50 10 -70 30s-30 43.333 -30 70v200c0 26.667 10 50 30 70s43.333 30 70 30z" />
    <glyph glyph-name="semicolon" unicode=";" 
d="M400 1200h200c26.667 0 50 -10 70 -30s30 -43.333 30 -70v-200c0 -26.667 -10 -50 -30 -70s-43.333 -30 -70 -30h-200c-26.667 0 -50 10 -70 30s-30 43.333 -30 70v200c0 26.667 10 50 30 70s43.333 30 70 30zM400 400h200c26.667 0 50 -10 70 -30s30 -43.333 30 -70
v-200c0 -26.667 -10 -50 -30 -70l-200 -200c-20 -20 -43.333 -30 -70 -30s-50 10 -70 30s-30 43.333 -30 70v400c0 26.667 10 50 30 70s43.333 30 70 30z" />
    <glyph glyph-name="less" unicode="&#x3c;" 
d="M336 700l534 -530c20 -20 30 -43.333 30 -70s-10 -50 -30 -70s-43.333 -30 -70 -30s-50 10 -70 30l-600 600c-20 20 -30 43.333 -30 70s10 50 30 70l600 600c20 20 43.333 30 70 30s50 -10 70 -30s30 -43.333 30 -70s-10 -50 -30 -70z" />
    <glyph glyph-name="equal" unicode="=" 
d="M200 800c-26.667 0 -50 10 -70 30s-30 43.333 -30 70s10 50 30 70s43.333 30 70 30h800c26.667 0 50 -10 70 -30s30 -43.333 30 -70s-10 -50 -30 -70s-43.333 -30 -70 -30h-800zM200 400c-26.667 0 -50 10 -70 30s-30 43.333 -30 70s10 50 30 70s43.333 30 70 30h800
c26.667 0 50 -10 70 -30s30 -43.333 30 -70s-10 -50 -30 -70s-43.333 -30 -70 -30h-800z" />
    <glyph glyph-name="greater" unicode="&#x3e;" 
d="M864 700l-534 530c-20 20 -30 43.333 -30 70s10 50 30 70s43.333 30 70 30s50 -10 70 -30l600 -600c20 -20 30 -43.333 30 -70s-10 -50 -30 -70l-600 -600c-20 -20 -43.333 -30 -70 -30s-50 10 -70 30s-30 43.333 -30 70s10 50 30 70z" />
    <glyph glyph-name="question" unicode="?" 
d="M600 0c-26.667 0 -50 10 -70 30s-30 43.333 -30 70s10 50 30 70s43.333 30 70 30s50 -10 70 -30s30 -43.333 30 -70s-10 -50 -30 -70s-43.333 -30 -70 -30zM600 400c-26.667 0 -50 10 -70 30s-30 43.333 -30 70s10 50 30 70l370 374v156c0 26.667 -10 50 -30 70
s-43.333 30 -70 30h-400c-26.667 0 -50 -10 -70 -30s-30 -43.333 -30 -70s-10 -50 -30 -70s-43.333 -30 -70 -30s-50 10 -70 30s-30 43.333 -30 70c0 80 30 150 90 210s130 90 210 90h400c80 0 150 -30 210 -90s90 -130 90 -210v-200c0 -26.667 -10 -50 -30 -70l-400 -400
c-20 -20 -43.333 -30 -70 -30z" />
    <glyph glyph-name="at" unicode="@" 
d="M800 400c-80 0 -150 30 -210 90s-90 130 -90 210s30 150 90 210s130 90 210 90h100v100c0 26.667 -10 50 -30 70s-43.333 30 -70 30h-400c-26.667 0 -50 -10 -70 -30s-30 -43.333 -30 -70v-800c0 -26.667 10 -50 30 -70s43.333 -30 70 -30h600c26.667 0 50 -10 70 -30
s30 -43.333 30 -70s-10 -50 -30 -70s-43.333 -30 -70 -30h-600c-80 0 -150 30 -210 90s-90 130 -90 210v800c0 80 30 150 90 210s130 90 210 90h400c80 0 150 -30 210 -90s90 -130 90 -210v-400c0 -80 -30 -150 -90 -210s-130 -90 -210 -90zM800 800
c-26.667 0 -50 -10 -70 -30s-30 -43.333 -30 -70s10 -50 30 -70s43.333 -30 70 -30s50 10 70 30s30 43.333 30 70s-10 50 -30 70s-43.333 30 -70 30z" />
    <glyph glyph-name="A" unicode="A" 
d="M200 0c-26.667 0 -50 10 -70 30s-30 43.333 -30 70v1000c0 80 30 150 90 210s130 90 210 90h400c80 0 150 -30 210 -90s90 -130 90 -210v-1000c0 -26.667 -10 -50 -30 -70s-43.333 -30 -70 -30s-50 10 -70 30s-30 43.333 -30 70v500h-600v-500c0 -26.667 -10 -50 -30 -70
s-43.333 -30 -70 -30zM300 800h600v300c0 26.667 -10 50 -30 70s-43.333 30 -70 30h-400c-26.667 0 -50 -10 -70 -30s-30 -43.333 -30 -70v-300z" />
    <glyph glyph-name="B" unicode="B" 
d="M200 0c-26.667 0 -50 10 -70 30s-30 43.333 -30 70v1200c0 26.667 10 50 30 70s43.333 30 70 30h600c80 0 150 -30 210 -90s90 -130 90 -210v-200c0 -80 -30 -150 -90 -210c60 -46.667 90 -110 90 -190v-200c0 -80 -30 -150 -90 -210s-130 -90 -210 -90h-600zM300 800
h500c26.667 0 50 10 70 30s30 43.333 30 70v200c0 26.667 -10 50 -30 70s-43.333 30 -70 30h-500v-400zM300 200h500c26.667 0 50 10 70 30s30 43.333 30 70v200c0 26.667 -10 50 -30 70s-43.333 30 -70 30h-500v-400z" />
    <glyph glyph-name="C" unicode="C" 
d="M400 0c-80 0 -150 30 -210 90s-90 130 -90 210v800c0 80 30 150 90 210s130 90 210 90h400c80 0 150 -30 210 -90s90 -130 90 -210c0 -26.667 -10 -50 -30 -70s-43.333 -30 -70 -30s-50 10 -70 30s-30 43.333 -30 70s-10 50 -30 70s-43.333 30 -70 30h-400
c-26.667 0 -50 -10 -70 -30s-30 -43.333 -30 -70v-800c0 -26.667 10 -50 30 -70s43.333 -30 70 -30h400c26.667 0 50 10 70 30s30 43.333 30 70s10 50 30 70s43.333 30 70 30s50 -10 70 -30s30 -43.333 30 -70c0 -80 -30 -150 -90 -210s-130 -90 -210 -90h-400z" />
    <glyph glyph-name="D" unicode="D" 
d="M200 0c-26.667 0 -50 10 -70 30s-30 43.333 -30 70v1200c0 26.667 10 50 30 70s43.333 30 70 30h600c80 0 150 -30 210 -90s90 -130 90 -210v-800c0 -80 -30 -150 -90 -210s-130 -90 -210 -90h-600zM900 300v800c0 26.667 -10 50 -30 70s-43.333 30 -70 30h-500v-1000
h500c26.667 0 50 10 70 30s30 43.333 30 70z" />
    <glyph glyph-name="E" unicode="E" 
d="M800 600h-500v-400h700c26.667 0 50 -10 70 -30s30 -43.333 30 -70s-10 -50 -30 -70s-43.333 -30 -70 -30h-800c-26.667 0 -50 10 -70 30s-30 43.333 -30 70v1200c0 26.667 10 50 30 70s43.333 30 70 30h800c26.667 0 50 -10 70 -30s30 -43.333 30 -70s-10 -50 -30 -70
s-43.333 -30 -70 -30h-700v-400h500c26.667 0 50 -10 70 -30s30 -43.333 30 -70s-10 -50 -30 -70s-43.333 -30 -70 -30z" />
    <glyph glyph-name="F" unicode="F" 
d="M800 600h-500v-400c0 -93.333 -10 -150 -30 -170s-43.333 -30 -70 -30s-50 10 -70 30s-30 43.333 -30 70v1200c0 26.667 10 50 30 70s43.333 30 70 30h800c26.667 0 50 -10 70 -30s30 -43.333 30 -70s-10 -50 -30 -70s-43.333 -30 -70 -30h-700v-400h500
c26.667 0 50 -10 70 -30s30 -43.333 30 -70s-10 -50 -30 -70s-43.333 -30 -70 -30z" />
    <glyph glyph-name="G" unicode="G" 
d="M400 0c-80 0 -150 30 -210 90s-90 130 -90 210v800c0 80 30 150 90 210s130 90 210 90h400c80 0 150 -30 210 -90s90 -130 90 -210c0 -26.667 -10 -50 -30 -70s-43.333 -30 -70 -30s-50 10 -70 30s-30 43.333 -30 70s-10 50 -30 70s-43.333 30 -70 30h-400
c-26.667 0 -50 -10 -70 -30s-30 -43.333 -30 -70v-800c0 -26.667 10 -50 30 -70s43.333 -30 70 -30h400c26.667 0 50 10 70 30s30 43.333 30 70v300h-100c-26.667 0 -50 10 -70 30s-30 43.333 -30 70s10 50 30 70s43.333 30 70 30h200c26.667 0 50 -10 70 -30
s30 -43.333 30 -70v-400c0 -80 -30 -150 -90 -210s-130 -90 -210 -90h-400z" />
    <glyph glyph-name="H" unicode="H" 
d="M1100 1300v-1200c0 -26.667 -10 -50 -30 -70s-43.333 -30 -70 -30s-50 10 -70 30s-30 43.333 -30 70v500h-600v-500c0 -26.667 -10 -50 -30 -70s-43.333 -30 -70 -30s-50 10 -70 30s-30 43.333 -30 70v1200c0 26.667 10 50 30 70s43.333 30 70 30s50 -10 70 -30
s30 -43.333 30 -70v-500h600v500c0 26.667 10 50 30 70s43.333 30 70 30s50 -10 70 -30s30 -43.333 30 -70z" />
    <glyph glyph-name="I" unicode="I" 
d="M400 0c-26.667 0 -50 10 -70 30s-30 43.333 -30 70s10 50 30 70s43.333 30 70 30h100v1000h-100c-26.667 0 -50 10 -70 30s-30 43.333 -30 70s10 50 30 70s43.333 30 70 30h400c26.667 0 50 -10 70 -30s30 -43.333 30 -70s-10 -50 -30 -70s-43.333 -30 -70 -30h-100
v-1000h100c26.667 0 50 -10 70 -30s30 -43.333 30 -70s-10 -50 -30 -70s-43.333 -30 -70 -30h-400z" />
    <glyph glyph-name="J" unicode="J" 
d="M800 0h-400c-80 0 -150 30 -210 90s-90 130 -90 210c0 26.667 10 50 30 70s43.333 30 70 30s50 -10 70 -30s30 -43.333 30 -70s10 -50 30 -70s43.333 -30 70 -30h400c26.667 0 50 10 70 30s30 43.333 30 70v1000c0 26.667 10 50 30 70s43.333 30 70 30s50 -10 70 -30
s30 -43.333 30 -70v-1000c0 -80 -30 -150 -90 -210s-130 -90 -210 -90z" />
    <glyph glyph-name="K" unicode="K" 
d="M536 700l534 -530c20 -20 30 -43.333 30 -70s-10 -50 -30 -70s-43.333 -30 -70 -30s-50 10 -70 30l-530 534l-100 -100v-364c0 -26.667 -10 -50 -30 -70s-43.333 -30 -70 -30s-50 10 -70 30s-30 43.333 -30 70v1200c0 26.667 10 50 30 70s43.333 30 70 30s50 -10 70 -30
s30 -43.333 30 -70v-556l630 626c20 20 43.333 30 70 30s50 -10 70 -30s30 -43.333 30 -70s-10 -50 -30 -70z" />
    <glyph glyph-name="L" unicode="L" 
d="M300 200h700c26.667 0 50 -10 70 -30s30 -43.333 30 -70s-10 -50 -30 -70s-43.333 -30 -70 -30h-800c-26.667 0 -50 10 -70 30s-30 43.333 -30 70v1200c0 26.667 10 50 30 70s43.333 30 70 30s50 -10 70 -30s30 -43.333 30 -70v-1100z" />
    <glyph glyph-name="M" unicode="M" 
d="M200 0c-26.667 0 -50 10 -70 30s-30 43.333 -30 70v1200c0 26.667 10 50 30 70s43.333 30 70 30s50 -10 70 -30l330 -330l330 330c20 20 43.333 30 70 30s50 -10 70 -30s30 -43.333 30 -70v-1200c0 -26.667 -10 -50 -30 -70s-43.333 -30 -70 -30s-50 10 -70 30
s-30 43.333 -30 70v964l-230 -234c-20 -20 -43.333 -30 -70 -30s-50 10 -70 30l-230 230v-960c0 -26.667 -10 -50 -30 -70s-43.333 -30 -70 -30z" />
    <glyph glyph-name="N" unicode="N" 
d="M200 0c-26.667 0 -50 10 -70 30s-30 43.333 -30 70v1200c0 26.667 10 50 30 70s43.333 30 70 30s50 -10 70 -30l630 -630v560c0 26.667 10 50 30 70s43.333 30 70 30s50 -10 70 -30s30 -43.333 30 -70v-1200c0 -26.667 -10 -50 -30 -70s-43.333 -30 -70 -30
s-50 10 -70 30s-30 43.333 -30 70v360l-600 600v-960c0 -26.667 -10 -50 -30 -70s-43.333 -30 -70 -30z" />
    <glyph glyph-name="O" unicode="O" 
d="M400 0c-80 0 -150 30 -210 90s-90 130 -90 210v800c0 80 30 150 90 210s130 90 210 90h400c80 0 150 -30 210 -90s90 -130 90 -210v-800c0 -80 -30 -150 -90 -210s-130 -90 -210 -90h-400zM900 1100c0 26.667 -10 50 -30 70s-43.333 30 -70 30h-400
c-26.667 0 -50 -10 -70 -30s-30 -43.333 -30 -70v-800c0 -26.667 10 -50 30 -70s43.333 -30 70 -30h400c26.667 0 50 10 70 30s30 43.333 30 70v800z" />
    <glyph glyph-name="P" unicode="P" 
d="M300 800h500c26.667 0 50 10 70 30s30 43.333 30 70v200c0 26.667 -10 50 -30 70s-43.333 30 -70 30h-500v-400zM300 100c0 -26.667 -10 -50 -30 -70s-43.333 -30 -70 -30s-50 10 -70 30s-30 43.333 -30 70v1200c0 26.667 10 50 30 70s43.333 30 70 30h600
c80 0 150 -30 210 -90s90 -130 90 -210v-200c0 -80 -30 -150 -90 -210s-130 -90 -210 -90h-500v-500z" />
    <glyph glyph-name="Q" unicode="Q" 
d="M900 1100c0 26.667 -10 50 -30 70s-43.333 30 -70 30h-400c-26.667 0 -50 -10 -70 -30s-30 -43.333 -30 -70v-800c0 -26.667 10 -50 30 -70s43.333 -30 70 -30h160l100 100l-130 130c-20 20 -30 43.333 -30 70s10 50 30 70s43.333 30 70 30s50 -10 70 -30l102 -102
l128 128v504zM1100 500c0 -26.667 -10 -50 -30 -70l-134 -130l134 -130c20 -20 30 -43.333 30 -70s-10 -50 -30 -70s-43.333 -30 -70 -30s-50 10 -70 30l-134 130l-126 -130c-20 -20 -43.333 -30 -70 -30h-200c-80 0 -150 30 -210 90s-90 130 -90 210v800
c0 80 30 150 90 210s130 90 210 90h400c80 0 150 -30 210 -90s90 -130 90 -210v-600z" />
    <glyph glyph-name="R" unicode="R" 
d="M300 800h500c26.667 0 50 10 70 30s30 43.333 30 70v200c0 26.667 -10 50 -30 70s-43.333 30 -70 30h-500v-400zM1000 0c-26.667 0 -50 10 -70 30s-30 43.333 -30 70v400c0 26.667 -10 50 -30 70s-43.333 30 -70 30h-500v-500c0 -26.667 -10 -50 -30 -70
s-43.333 -30 -70 -30s-50 10 -70 30s-30 43.333 -30 70v1200c0 26.667 10 50 30 70s43.333 30 70 30h600c80 0 150 -30 210 -90s90 -130 90 -210v-200c0 -80 -30 -150 -90 -210c60 -46.667 90 -110 90 -190v-400c0 -26.667 -10 -50 -30 -70s-43.333 -30 -70 -30z" />
    <glyph glyph-name="S" unicode="S" 
d="M400 600c-93.333 0 -166.666 26.667 -219.999 80s-80 126.666 -80 219.999v200c0 80 26.667 150 80 210s126.666 90 219.999 90h400c80 0 150 -30 210 -90s90 -130 90 -210c0 -26.667 -10 -50 -30 -70s-43.333 -30 -70 -30s-50 10 -70 30s-30 43.333 -30 70
s-10 50 -30 70s-43.333 30 -70 30h-400c-26.667 0 -50 -10 -70 -30s-30 -43.333 -30 -70v-200c0 -26.667 10 -50 30 -70s43.333 -30 70 -30h400c80 0 150 -30 210 -90s90 -130 90 -210v-200c0 -93.333 -30 -166.666 -90 -219.999s-130 -80 -210 -80h-400
c-80 0 -150 30 -210 90s-90 130 -90 210c0 26.667 10 50 30 70s43.333 30 70 30s50 -10 70 -30s30 -43.333 30 -70s10 -50 30 -70s43.333 -30 70 -30h400c26.667 0 50 10 70 30s30 43.333 30 70v200c0 26.667 -10 50 -30 70s-43.333 30 -70 30h-400z" />
    <glyph glyph-name="T" unicode="T" 
d="M200 1200c-26.667 0 -50 10 -70 30s-30 43.333 -30 70s10 50 30 70s43.333 30 70 30h800c26.667 0 50 -10 70 -30s30 -43.333 30 -70s-10 -50 -30 -70s-43.333 -30 -70 -30h-300v-1100c0 -26.667 -10 -50 -30 -70s-43.333 -30 -70 -30s-50 10 -70 30s-30 43.333 -30 70
v1100h-300z" />
    <glyph glyph-name="U" unicode="U" 
d="M800 0h-400c-80 0 -150 30 -210 90s-90 130 -90 210v1000c0 26.667 10 50 30 70s43.333 30 70 30s50 -10 70 -30s30 -43.333 30 -70v-1000c0 -26.667 10 -50 30 -70s43.333 -30 70 -30h400c26.667 0 50 10 70 30s30 43.333 30 70v1000c0 26.667 10 50 30 70
s43.333 30 70 30s50 -10 70 -30s30 -43.333 30 -70v-1000c0 -80 -30 -150 -90 -210s-130 -90 -210 -90z" />
    <glyph glyph-name="V" unicode="V" 
d="M600 0c-26.667 0 -50 10 -70 30l-400 400c-20 20 -30 43.333 -30 70v800c0 26.667 10 50 30 70s43.333 30 70 30s50 -10 70 -30s30 -43.333 30 -70v-704l300 -300l300 300v704c0 26.667 10 50 30 70s43.333 30 70 30s50 -10 70 -30s30 -43.333 30 -70v-800
c0 -26.667 -10 -50 -30 -70l-400 -400c-20 -20 -43.333 -30 -70 -30z" />
    <glyph glyph-name="W" unicode="W" 
d="M800 0c-80 0 -150 30 -210 90c-46.667 -60 -110 -90 -190 -90s-150 30 -210 90s-90 130 -90 210v1000c0 26.667 10 50 30 70s43.333 30 70 30s50 -10 70 -30s30 -43.333 30 -70v-1000c0 -26.667 10 -50 30 -70s43.333 -30 70 -30s50 10 70 30s30 43.333 30 70v400
c0 26.667 10 50 30 70s43.333 30 70 30s50 -10 70 -30s30 -43.333 30 -70v-400c0 -26.667 10 -50 30 -70s43.333 -30 70 -30s50 10 70 30s30 43.333 30 70v1000c0 26.667 10 50 30 70s43.333 30 70 30s50 -10 70 -30s30 -43.333 30 -70v-1000c0 -80 -30 -150 -90 -210
s-130 -90 -210 -90z" />
    <glyph glyph-name="X" unicode="X" 
d="M300 260v-160c0 -26.667 -10 -50 -30 -70s-43.333 -30 -70 -30s-50 10 -70 30s-30 43.333 -30 70v200c0 26.667 10 50 30 70l330 330l-330 330c-20 20 -30 43.333 -30 70v200c0 26.667 10 50 30 70s43.333 30 70 30s50 -10 70 -30s30 -43.333 30 -70v-160l300 -300
l300 300v160c0 26.667 10 50 30 70s43.333 30 70 30s50 -10 70 -30s30 -43.333 30 -70v-200c0 -26.667 -10 -50 -30 -70l-334 -330l334 -330c20 -20 30 -43.333 30 -70v-200c0 -26.667 -10 -50 -30 -70s-43.333 -30 -70 -30s-50 10 -70 30s-30 43.333 -30 70v160l-300 300z
" />
    <glyph glyph-name="Y" unicode="Y" 
d="M500 660l-370 370c-20 20 -30 43.333 -30 70v200c0 26.667 10 50 30 70s43.333 30 70 30s50 -10 70 -30s30 -43.333 30 -70v-160l300 -300l300 300v160c0 26.667 10 50 30 70s43.333 30 70 30s50 -10 70 -30s30 -43.333 30 -70v-200c0 -26.667 -10 -50 -30 -70l-370 -366
v-564c0 -26.667 -10 -50 -30 -70s-43.333 -30 -70 -30s-50 10 -70 30s-30 43.333 -30 70v560z" />
    <glyph glyph-name="Z" unicode="Z" 
d="M100 300c0 26.667 10 50 30 70l770 774v56h-700c-26.667 0 -50 10 -70 30s-30 43.333 -30 70s10 50 30 70s43.333 30 70 30h800c26.667 0 50 -10 70 -30s30 -43.333 30 -70v-200c0 -26.667 -10 -50 -30 -70l-770 -766v-64h700c26.667 0 50 -10 70 -30s30 -43.333 30 -70
s-10 -50 -30 -70s-43.333 -30 -70 -30h-800c-26.667 0 -50 10 -70 30s-30 43.333 -30 70v200z" />
    <glyph glyph-name="bracketleft" unicode="[" 
d="M800 0h-200c-26.667 0 -50 10 -70 30s-30 43.333 -30 70v1200c0 26.667 10 50 30 70s43.333 30 70 30h200c26.667 0 50 -10 70 -30s30 -43.333 30 -70s-10 -50 -30 -70s-43.333 -30 -70 -30h-100v-1000h100c26.667 0 50 -10 70 -30s30 -43.333 30 -70s-10 -50 -30 -70
s-43.333 -30 -70 -30z" />
    <glyph glyph-name="backslash" unicode="\" 
d="M1000 0c-26.667 0 -50 10 -70 30s-30 43.333 -30 70v164l-770 766c-20 20 -30 43.333 -30 70v200c0 26.667 10 50 30 70s43.333 30 70 30s50 -10 70 -30s30 -43.333 30 -70v-156l770 -774c20 -20 30 -43.333 30 -70v-200c0 -26.667 -10 -50 -30 -70s-43.333 -30 -70 -30z
" />
    <glyph glyph-name="bracketright" unicode="]" 
d="M400 0c-26.667 0 -50 10 -70 30s-30 43.333 -30 70s10 50 30 70s43.333 30 70 30h100v1000h-100c-26.667 0 -50 10 -70 30s-30 43.333 -30 70s10 50 30 70s43.333 30 70 30h200c26.667 0 50 -10 70 -30s30 -43.333 30 -70v-1200c0 -26.667 -10 -50 -30 -70
s-43.333 -30 -70 -30h-200z" />
    <glyph glyph-name="asciicircum" unicode="^" 
d="M200 800c-26.667 0 -50 10 -70 30s-30 43.333 -30 70s10 50 30 70l400 400c20 20 43.333 30 70 30s50 -10 70 -30l400 -400c20 -20 30 -43.333 30 -70s-10 -50 -30 -70s-43.333 -30 -70 -30s-50 10 -70 30l-330 334l-330 -334c-20 -20 -43.333 -30 -70 -30z" />
    <glyph glyph-name="underscore" unicode="_" 
d="M200 -200c-26.667 0 -50 10 -70 30s-30 43.333 -30 70s10 50 30 70s43.333 30 70 30h800c26.667 0 50 -10 70 -30s30 -43.333 30 -70s-10 -50 -30 -70s-43.333 -30 -70 -30h-800z" />
    <glyph glyph-name="grave" unicode="`" 
d="M530 1230c-20 20 -30 43.333 -30 70s10 50 30 70s43.333 30 70 30s50 -10 70 -30l200 -200c20 -20 30 -43.333 30 -70s-10 -50 -30 -70s-43.333 -30 -70 -30s-50 10 -70 30z" />
    <glyph glyph-name="a" unicode="a" 
d="M400 0c-80 0 -150 30 -210 90s-90 130 -90 210s30 150 90 210s130 90 210 90h500v100c0 26.667 -10 50 -30 70s-43.333 30 -70 30h-400c-26.667 0 -50 10 -70 30s-30 43.333 -30 70s10 50 30 70s43.333 30 70 30h400c80 0 150 -30 210 -90s90 -130 90 -210v-600
c0 -26.667 -10 -50 -30 -70s-43.333 -30 -70 -30h-600zM900 400h-500c-26.667 0 -50 -10 -70 -30s-30 -43.333 -30 -70s10 -50 30 -70s43.333 -30 70 -30h500v200z" />
    <glyph glyph-name="b" unicode="b" 
d="M800 800h-500v-600h500c26.667 0 50 10 70 30s30 43.333 30 70v400c0 26.667 -10 50 -30 70s-43.333 30 -70 30zM200 0c-26.667 0 -50 10 -70 30s-30 43.333 -30 70v1200c0 26.667 10 50 30 70s43.333 30 70 30s50 -10 70 -30s30 -43.333 30 -70v-300h500
c80 0 150 -30 210 -90s90 -130 90 -210v-400c0 -80 -30 -150 -90 -210s-130 -90 -210 -90h-600z" />
    <glyph glyph-name="c" unicode="c" 
d="M400 0c-80 0 -150 30 -210 90s-90 130 -90 210v400c0 80 30 150 90 210s130 90 210 90h400c80 0 150 -30 210 -90s90 -130 90 -210c0 -26.667 -10 -50 -30 -70s-43.333 -30 -70 -30s-50 10 -70 30s-30 43.333 -30 70s-10 50 -30 70s-43.333 30 -70 30h-400
c-26.667 0 -50 -10 -70 -30s-30 -43.333 -30 -70v-400c0 -26.667 10 -50 30 -70s43.333 -30 70 -30h400c26.667 0 50 10 70 30s30 43.333 30 70s10 50 30 70s43.333 30 70 30s50 -10 70 -30s30 -43.333 30 -70c0 -80 -30 -150 -90 -210s-130 -90 -210 -90h-400z" />
    <glyph glyph-name="d" unicode="d" 
d="M400 800c-26.667 0 -50 -10 -70 -30s-30 -43.333 -30 -70v-400c0 -26.667 10 -50 30 -70s43.333 -30 70 -30h500v600h-500zM1000 0h-600c-80 0 -150 30 -210 90s-90 130 -90 210v400c0 80 30 150 90 210s130 90 210 90h500v300c0 26.667 10 50 30 70s43.333 30 70 30
s50 -10 70 -30s30 -43.333 30 -70v-1200c0 -26.667 -10 -50 -30 -70s-43.333 -30 -70 -30z" />
    <glyph glyph-name="e" unicode="e" 
d="M400 0c-80 0 -150 30 -210 90s-90 130 -90 210v400c0 80 30 150 90 210s130 90 210 90h400c80 0 150 -30 210 -90s90 -130 90 -210v-200c0 -26.667 -10 -50 -30 -70s-43.333 -30 -70 -30h-700v-100c0 -26.667 10 -50 30 -70s43.333 -30 70 -30h400
c26.667 0 50 -10 70 -30s30 -43.333 30 -70s-10 -50 -30 -70s-43.333 -30 -70 -30h-400zM300 600h600v100c0 26.667 -10 50 -30 70s-43.333 30 -70 30h-400c-26.667 0 -50 -10 -70 -30s-30 -43.333 -30 -70v-100z" />
    <glyph glyph-name="f" unicode="f" 
d="M800 800h-100v-700c0 -26.667 -10 -50 -30 -70s-43.333 -30 -70 -30s-50 10 -70 30s-30 43.333 -30 70v700h-100c-26.667 0 -50 10 -70 30s-30 43.333 -30 70s10 50 30 70s43.333 30 70 30h100v100c0 80 30 150 90 210s130 90 210 90h200c26.667 0 50 -10 70 -30
s30 -43.333 30 -70s-10 -50 -30 -70s-43.333 -30 -70 -30h-200c-26.667 0 -50 -10 -70 -30s-30 -43.333 -30 -70v-100h100c26.667 0 50 -10 70 -30s30 -43.333 30 -70s-10 -50 -30 -70s-43.333 -30 -70 -30z" />
    <glyph glyph-name="g" unicode="g" 
d="M400 200c-80 0 -150 30 -210 90s-90 130 -90 210v200c0 80 30 150 90 210s130 90 210 90h600c26.667 0 50 -10 70 -30s30 -43.333 30 -70v-800c0 -80 -30 -150 -90 -210s-130 -90 -210 -90h-400c-26.667 0 -50 10 -70 30s-30 43.333 -30 70s10 50 30 70s43.333 30 70 30
h400c26.667 0 50 10 70 30s30 43.333 30 70v100h-500zM900 400v400h-500c-26.667 0 -50 -10 -70 -30s-30 -43.333 -30 -70v-200c0 -26.667 10 -50 30 -70s43.333 -30 70 -30h500z" />
    <glyph glyph-name="h" unicode="h" 
d="M100 1300c0 26.667 10 50 30 70s43.333 30 70 30s50 -10 70 -30s30 -43.333 30 -70v-300h500c80 0 150 -30 210 -90s90 -130 90 -210v-600c0 -26.667 -10 -50 -30 -70s-43.333 -30 -70 -30s-50 10 -70 30s-30 43.333 -30 70v600c0 26.667 -10 50 -30 70
s-43.333 30 -70 30h-500v-700c0 -26.667 -10 -50 -30 -70s-43.333 -30 -70 -30s-50 10 -70 30s-30 43.333 -30 70v1200z" />
    <glyph glyph-name="i" unicode="i" 
d="M500 800h-100c-26.667 0 -50 10 -70 30s-30 43.333 -30 70s10 50 30 70s43.333 30 70 30h200c26.667 0 50 -10 70 -30s30 -43.333 30 -70v-700h100c26.667 0 50 -10 70 -30s30 -43.333 30 -70s-10 -50 -30 -70s-43.333 -30 -70 -30h-400c-26.667 0 -50 10 -70 30
s-30 43.333 -30 70s10 50 30 70s43.333 30 70 30h100v600zM600 1200c-26.667 0 -50 10 -70 30s-30 43.333 -30 70s10 50 30 70s43.333 30 70 30s50 -10 70 -30s30 -43.333 30 -70s-10 -50 -30 -70s-43.333 -30 -70 -30z" />
    <glyph glyph-name="j" unicode="j" 
d="M800 1200c-26.667 0 -50 10 -70 30s-30 43.333 -30 70s10 50 30 70s43.333 30 70 30s50 -10 70 -30s30 -43.333 30 -70s-10 -50 -30 -70s-43.333 -30 -70 -30zM600 800c-26.667 0 -50 10 -70 30s-30 43.333 -30 70s10 50 30 70s43.333 30 70 30h200
c26.667 0 50 -10 70 -30s30 -43.333 30 -70v-800c0 -80 -30 -150 -90 -210s-130 -90 -210 -90h-200c-80 0 -150 30 -210 90s-90 130 -90 210c0 26.667 10 50 30 70s43.333 30 70 30s50 -10 70 -30s30 -43.333 30 -70s10 -50 30 -70s43.333 -30 70 -30h200
c26.667 0 50 10 70 30s30 43.333 30 70v700h-100z" />
    <glyph glyph-name="k" unicode="k" 
d="M1000 0c-26.667 0 -50 10 -70 30l-330 330l-100 -100v-160c0 -26.667 -10 -50 -30 -70s-43.333 -30 -70 -30s-50 10 -70 30s-30 43.333 -30 70v1200c0 26.667 10 50 30 70s43.333 30 70 30s50 -10 70 -30s30 -43.333 30 -70v-756l430 426c20 20 43.333 30 70 30
s50 -10 70 -30s30 -43.333 30 -70s-10 -50 -30 -70l-330 -326l330 -334c20 -20 30 -43.333 30 -70s-10 -50 -30 -70s-43.333 -30 -70 -30z" />
    <glyph glyph-name="l" unicode="l" 
d="M400 0c-26.667 0 -50 10 -70 30s-30 43.333 -30 70s10 50 30 70s43.333 30 70 30h100v1000h-100c-26.667 0 -50 10 -70 30s-30 43.333 -30 70s10 50 30 70s43.333 30 70 30h200c26.667 0 50 -10 70 -30s30 -43.333 30 -70v-1100h100c26.667 0 50 -10 70 -30
s30 -43.333 30 -70s-10 -50 -30 -70s-43.333 -30 -70 -30h-400z" />
    <glyph glyph-name="m" unicode="m" 
d="M300 800v-700c0 -26.667 -10 -50 -30 -70s-43.333 -30 -70 -30s-50 10 -70 30s-30 43.333 -30 70v800c0 26.667 10 50 30 70s43.333 30 70 30h200c80 0 150 -30 210 -90c46.667 60 110 90 190 90s150 -30 210 -90s90 -130 90 -210v-600c0 -26.667 -10 -50 -30 -70
s-43.333 -30 -70 -30s-50 10 -70 30s-30 43.333 -30 70v600c0 26.667 -10 50 -30 70s-43.333 30 -70 30s-50 -10 -70 -30s-30 -43.333 -30 -70v-600c0 -26.667 -10 -50 -30 -70s-43.333 -30 -70 -30s-50 10 -70 30s-30 43.333 -30 70v600c0 26.667 -10 50 -30 70
s-43.333 30 -70 30h-100z" />
    <glyph glyph-name="n" unicode="n" 
d="M300 800v-700c0 -26.667 -10 -50 -30 -70s-43.333 -30 -70 -30s-50 10 -70 30s-30 43.333 -30 70v800c0 26.667 10 50 30 70s43.333 30 70 30h600c80 0 150 -30 210 -90s90 -130 90 -210v-600c0 -26.667 -10 -50 -30 -70s-43.333 -30 -70 -30s-50 10 -70 30
s-30 43.333 -30 70v600c0 26.667 -10 50 -30 70s-43.333 30 -70 30h-500z" />
    <glyph glyph-name="o" unicode="o" 
d="M400 0c-80 0 -150 30 -210 90s-90 130 -90 210v400c0 80 30 150 90 210s130 90 210 90h400c80 0 150 -30 210 -90s90 -130 90 -210v-400c0 -80 -30 -150 -90 -210s-130 -90 -210 -90h-400zM900 700c0 26.667 -10 50 -30 70s-43.333 30 -70 30h-400
c-26.667 0 -50 -10 -70 -30s-30 -43.333 -30 -70v-400c0 -26.667 10 -50 30 -70s43.333 -30 70 -30h400c26.667 0 50 10 70 30s30 43.333 30 70v400z" />
    <glyph glyph-name="p" unicode="p" 
d="M800 200h-500v-300c0 -26.667 -10 -50 -30 -70s-43.333 -30 -70 -30s-50 9.33301 -70 28s-30 42.667 -30 72v1000c0 26.667 10 50 30 70s43.333 30 70 30h600c80 0 150 -30 210 -90s90 -130 90 -210v-200c0 -80 -30 -150 -90 -210s-130 -90 -210 -90zM300 400h500
c26.667 0 50 10 70 30s30 43.333 30 70v200c0 26.667 -10 50 -30 70s-43.333 30 -70 30h-500v-400z" />
    <glyph glyph-name="q" unicode="q" 
d="M400 200c-80 0 -150 30 -210 90s-90 130 -90 210v200c0 80 30 150 90 210s130 90 210 90h600c26.667 0 50 -10 70 -30s30 -43.333 30 -70v-1000c0 -29.333 -10 -53.333 -30 -72s-43.333 -28 -70 -28s-50 10 -70 30s-30 43.333 -30 70v300h-500zM900 400v400h-500
c-26.667 0 -50 -10 -70 -30s-30 -43.333 -30 -70v-200c0 -26.667 10 -50 30 -70s43.333 -30 70 -30h500z" />
    <glyph glyph-name="r" unicode="r" 
d="M500 800v-700c0 -26.667 -10 -50 -30 -70s-43.333 -30 -70 -30s-50 10 -70 30s-30 43.333 -30 70v800c0 26.667 10 50 30 70s43.333 30 70 30h400c80 0 150 -30 210 -90s90 -130 90 -210c0 -26.667 -10 -50 -30 -70s-43.333 -30 -70 -30s-50 10 -70 30s-30 43.333 -30 70
s-10 50 -30 70s-43.333 30 -70 30h-300z" />
    <glyph glyph-name="s" unicode="s" 
d="M400 400c-80 0 -150 30 -210 90s-90 130 -90 210s30 150 90 210s130 90 210 90h600c26.667 0 50 -10 70 -30s30 -43.333 30 -70s-10 -50 -30 -70s-43.333 -30 -70 -30h-600c-26.667 0 -50 -10 -70 -30s-30 -43.333 -30 -70s10 -50 30 -70s43.333 -30 70 -30h400
c80 0 150 -30 210 -90s90 -130 90 -210s-30 -150 -90 -210s-130 -90 -210 -90h-600c-26.667 0 -50 10 -70 30s-30 43.333 -30 70s10 50 30 70s43.333 30 70 30h600c26.667 0 50 10 70 30s30 43.333 30 70s-10 50 -30 70s-44.667 30 -74 30h-396z" />
    <glyph glyph-name="t" unicode="t" 
d="M400 800c-26.667 0 -50 10 -70 30s-30 43.333 -30 70s10 50 30 70s43.333 30 70 30h100v300c0 26.667 10 50 30 70s43.333 30 70 30s50 -10 70 -30s30 -43.333 30 -70v-300h300c26.667 0 50 -10 70 -30s30 -43.333 30 -70s-10 -50 -30 -70s-43.333 -30 -70 -30h-300v-500
c0 -26.667 10 -50 30 -70s43.333 -30 70 -30h200c26.667 0 50 -10 70 -30s30 -43.333 30 -70s-10 -50 -30 -70s-43.333 -30 -70 -30h-200c-80 0 -150 30 -210 90s-90 130 -90 210v500h-100z" />
    <glyph glyph-name="u" unicode="u" 
d="M900 200v700c0 26.667 10 50 30 70s43.333 30 70 30s50 -10 70 -30s30 -43.333 30 -70v-800c0 -26.667 -10 -50 -30 -70s-43.333 -30 -70 -30h-600c-80 0 -150 30 -210 90s-90 130 -90 210v600c0 26.667 10 50 30 70s43.333 30 70 30s50 -10 70 -30s30 -43.333 30 -70
v-600c0 -26.667 10 -50 30 -70s43.333 -30 70 -30h500z" />
    <glyph glyph-name="v" unicode="v" 
d="M600 0c-26.667 0 -50 10 -70 30l-400 400c-20 20 -30 43.333 -30 70v400c0 26.667 10 50 30 70s43.333 30 70 30s50 -10 70 -30s30 -43.333 30 -70v-304l300 -300l300 300v304c0 26.667 10 50 30 70s43.333 30 70 30s50 -10 70 -30s30 -43.333 30 -70v-400
c0 -26.667 -10 -50 -30 -70l-400 -400c-20 -20 -43.333 -30 -70 -30z" />
    <glyph glyph-name="w" unicode="w" 
d="M800 0c-80 0 -150 30 -210 90c-46.667 -60 -110 -90 -190 -90s-150 30 -210 90s-90 130 -90 210v600c0 26.667 10 50 30 70s43.333 30 70 30s50 -10 70 -30s30 -43.333 30 -70v-600c0 -26.667 10 -50 30 -70s43.333 -30 70 -30s50 10 70 30s30 43.333 30 70v400
c0 26.667 10 50 30 70s43.333 30 70 30s50 -10 70 -30s30 -43.333 30 -70v-400c0 -26.667 10 -50 30 -70s43.333 -30 70 -30s50 10 70 30s30 43.333 30 70v600c0 26.667 10 50 30 70s43.333 30 70 30s50 -10 70 -30s30 -43.333 30 -70v-600c0 -80 -30 -150 -90 -210
s-130 -90 -210 -90z" />
    <glyph glyph-name="x" unicode="x" 
d="M600 364l-330 -334c-20 -20 -43.333 -30 -70 -30s-50 10 -70 30s-30 43.333 -30 70s10 50 30 70l326 330l-326 330c-20 20 -30 43.333 -30 70s10 50 30 70s43.333 30 70 30s50 -10 70 -30l330 -326l330 326c20 20 43.333 30 70 30s50 -10 70 -30s30 -43.333 30 -70
s-10 -50 -30 -70l-334 -330l334 -330c20 -20 30 -43.333 30 -70s-10 -50 -30 -70s-43.333 -30 -70 -30s-50 10 -70 30z" />
    <glyph glyph-name="y" unicode="y" 
d="M400 200c-80 0 -150 30 -210 90s-90 130 -90 210v400c0 26.667 10 50 30 70s43.333 30 70 30s50 -10 70 -30s30 -43.333 30 -70v-400c0 -26.667 10 -50 30 -70s43.333 -30 70 -30h500v500c0 26.667 10 50 30 70s43.333 30 70 30s50 -10 70 -30s30 -43.333 30 -70v-800
c0 -80 -30 -150 -90 -210s-130 -90 -210 -90h-400c-26.667 0 -50 10 -70 30s-30 43.333 -30 70s10 50 30 70s43.333 30 70 30h400c26.667 0 50 10 70 30s30 43.333 30 70v100h-500z" />
    <glyph glyph-name="z" unicode="z" 
d="M200 0c-26.667 0 -50 10 -70 30s-30 43.333 -30 70s10 50 30 70l626 630h-556c-26.667 0 -50 10 -70 30s-30 43.333 -30 70s10 50 30 70s43.333 30 70 30h800c26.667 0 50 -10 70 -30s30 -43.333 30 -70s-10 -50 -30 -70l-634 -630h564c26.667 0 50 -10 70 -30
s30 -43.333 30 -70s-10 -50 -30 -70s-43.333 -30 -70 -30h-800z" />
    <glyph glyph-name="braceleft" unicode="{" 
d="M800 0c-80 0 -150 30.001 -210 90.001s-90 130 -90 210v200c0 26.667 -10 50 -30 70s-43.333 30 -70 30s-50 10 -70 30s-30 43.333 -30 70s10 50 30 70s43.333 30 70 30c24 -2.66699 46.667 6.66602 68 27.999s32 45.333 32 72v200c0 80 30 150 90 210s130 90 210 90
c26.667 0 50 -10 70 -30s30 -43.333 30 -70s-10 -50 -30 -70s-43.333 -30 -70 -30s-50 -10 -70 -30s-30 -43.333 -30 -70v-200c0 -80 -30 -150 -90 -210c60 -46.667 90 -110 90 -190v-200c0 -26.667 10 -50 30 -70s43.333 -30 70 -30s50 -10 70 -30s30 -43.333 30 -70
s-10 -50 -30 -70s-43.333 -30 -70 -30z" />
    <glyph glyph-name="bar" unicode="|" 
d="M600 0c-26.667 0 -50 10 -70 30s-30 43.333 -30 70v1200c0 26.667 10 50 30 70s43.333 30 70 30s50 -10 70 -30s30 -43.333 30 -70v-1200c0 -26.667 -10 -50 -30 -70s-43.333 -30 -70 -30z" />
    <glyph glyph-name="braceright" unicode="}" 
d="M400 0c-26.667 0 -50 9.99902 -70 29.999s-30 43.333 -30 70s10 50 30 70s43.333 30 70 30s50 10 70 30s30 43.333 30 70v200c0 80 30 143.333 90 190c-60 60 -90 130 -90 210v200c0 26.667 -10 50 -30 70s-43.333 30 -70 30s-50 10 -70 30s-30 43.333 -30 70
s10 50 30 70s43.333 30 70 30c80 0 150 -30 210 -90s90 -130 90 -210v-200c0 -26.667 10.667 -50.667 32 -72s44 -30.666 68 -27.999c26.667 0 50 -10 70 -30s30 -43.333 30 -70s-10 -50 -30 -70s-43.333 -30 -70 -30s-50 -10 -70 -30s-30 -43.333 -30 -70v-200
c0 -80 -30 -150 -90 -210s-130 -90 -210 -90z" />
    <glyph glyph-name="asciitilde" unicode="~" 
d="M200 1000c-26.667 0 -50 10.001 -70 30.001s-30 43.333 -30 70c0 77.333 30 146.666 90 207.999s130 92 210 92s150 -30 210 -90s90 -130 90 -210c0 -26.667 10 -50 30 -70s43.333 -30 70 -30s50 10 70 30s30 43.333 30 70s10 50 30 70s43.333 30 70 30s50 -10 70 -30
s30 -43.333 30 -70c0 -80 -30 -150 -90 -210s-130 -90 -210 -90s-150 30 -210 90s-90 130 -90 210c0 26.667 -10 50 -30 70s-43.333 30 -70 30s-50 -10 -70 -30s-30 -43.333 -30 -70s-10 -50 -30 -70s-43.333 -30 -70 -30z" />
    <glyph glyph-name="uni007F" 
d="M1000 1400c26.667 0 50 -10 70 -30s30 -43.333 30 -70v-1200c0 -26.667 -10 -50 -30 -70s-43.333 -30 -70 -30h-800c-26.667 0 -50 10 -70 30s-30 43.333 -30 70v1200c0 26.667 10 50 30 70s43.333 30 70 30h800z" />
    <glyph glyph-name="glyph1" horiz-adv-x="0" 
 />
    <glyph glyph-name="glyph12" 
d="M400 0c-26.667 0 -50 10 -70 30s-30 43.333 -30 70s10 50 30 70s43.333 30 70 30s50 -10 70 -30s30 -43.333 30 -70s-10 -50 -30 -70s-43.333 -30 -70 -30zM600 0c-26.667 0 -50 10 -70 30s-30 43.333 -30 70s10 50 30 70s43.333 30 70 30s50 -10 70 -30
s30 -43.333 30 -70s-10 -50 -30 -70s-43.333 -30 -70 -30zM800 0c-26.667 0 -50 10 -70 30s-30 43.333 -30 70s10 50 30 70s43.333 30 70 30s50 -10 70 -30s30 -43.333 30 -70s-10 -50 -30 -70s-43.333 -30 -70 -30zM1000 0c-26.667 0 -50 10 -70 30s-30 43.333 -30 70
s10 50 30 70s43.333 30 70 30s50 -10 70 -30s30 -43.333 30 -70s-10 -50 -30 -70s-43.333 -30 -70 -30zM200 200c-26.667 0 -50 10 -70 30s-30 43.333 -30 70s10 50 30 70s43.333 30 70 30s50 -10 70 -30s30 -43.333 30 -70s-10 -50 -30 -70s-43.333 -30 -70 -30zM400 200
c-26.667 0 -50 10 -70 30s-30 43.333 -30 70s10 50 30 70s43.333 30 70 30s50 -10 70 -30s30 -43.333 30 -70s-10 -50 -30 -70s-43.333 -30 -70 -30zM600 200c-26.667 0 -50 10 -70 30s-30 43.333 -30 70s10 50 30 70s43.333 30 70 30s50 -10 70 -30s30 -43.333 30 -70
s-10 -50 -30 -70s-43.333 -30 -70 -30zM800 200c-26.667 0 -50 10 -70 30s-30 43.333 -30 70s10 50 30 70s43.333 30 70 30s50 -10 70 -30s30 -43.333 30 -70s-10 -50 -30 -70s-43.333 -30 -70 -30zM1000 200c-26.667 0 -50 10 -70 30s-30 43.333 -30 70s10 50 30 70
s43.333 30 70 30s50 -10 70 -30s30 -43.333 30 -70s-10 -50 -30 -70s-43.333 -30 -70 -30zM200 400c-26.667 0 -50 10 -70 30s-30 43.333 -30 70s10 50 30 70s43.333 30 70 30s50 -10 70 -30s30 -43.333 30 -70s-10 -50 -30 -70s-43.333 -30 -70 -30zM200 600
c-26.667 0 -50 10 -70 30s-30 43.333 -30 70s10 50 30 70s43.333 30 70 30s50 -10 70 -30s30 -43.333 30 -70s-10 -50 -30 -70s-43.333 -30 -70 -30zM200 800c-26.667 0 -50 10 -70 30s-30 43.333 -30 70s10 50 30 70s43.333 30 70 30s50 -10 70 -30s30 -43.333 30 -70
s-10 -50 -30 -70s-43.333 -30 -70 -30zM200 1000c-26.667 0 -50 10 -70 30s-30 43.333 -30 70s10 50 30 70s43.333 30 70 30s50 -10 70 -30s30 -43.333 30 -70s-10 -50 -30 -70s-43.333 -30 -70 -30zM200 1200c-26.667 0 -50 10 -70 30s-30 43.333 -30 70s10 50 30 70
s43.333 30 70 30s50 -10 70 -30s30 -43.333 30 -70s-10 -50 -30 -70s-43.333 -30 -70 -30zM400 400c-26.667 0 -50 10 -70 30s-30 43.333 -30 70s10 50 30 70s43.333 30 70 30s50 -10 70 -30s30 -43.333 30 -70s-10 -50 -30 -70s-43.333 -30 -70 -30zM600 400
c-26.667 0 -50 10 -70 30s-30 43.333 -30 70s10 50 30 70s43.333 30 70 30s50 -10 70 -30s30 -43.333 30 -70s-10 -50 -30 -70s-43.333 -30 -70 -30zM800 400c-26.667 0 -50 10 -70 30s-30 43.333 -30 70s10 50 30 70s43.333 30 70 30s50 -10 70 -30s30 -43.333 30 -70
s-10 -50 -30 -70s-43.333 -30 -70 -30zM1000 400c-26.667 0 -50 10 -70 30s-30 43.333 -30 70s10 50 30 70s43.333 30 70 30s50 -10 70 -30s30 -43.333 30 -70s-10 -50 -30 -70s-43.333 -30 -70 -30zM400 600c-26.667 0 -50 10 -70 30s-30 43.333 -30 70s10 50 30 70
s43.333 30 70 30s50 -10 70 -30s30 -43.333 30 -70s-10 -50 -30 -70s-43.333 -30 -70 -30zM400 800c-26.667 0 -50 10 -70 30s-30 43.333 -30 70s10 50 30 70s43.333 30 70 30s50 -10 70 -30s30 -43.333 30 -70s-10 -50 -30 -70s-43.333 -30 -70 -30zM400 1000
c-26.667 0 -50 10 -70 30s-30 43.333 -30 70s10 50 30 70s43.333 30 70 30s50 -10 70 -30s30 -43.333 30 -70s-10 -50 -30 -70s-43.333 -30 -70 -30zM400 1200c-26.667 0 -50 10 -70 30s-30 43.333 -30 70s10 50 30 70s43.333 30 70 30s50 -10 70 -30s30 -43.333 30 -70
s-10 -50 -30 -70s-43.333 -30 -70 -30zM600 600c-26.667 0 -50 10 -70 30s-30 43.333 -30 70s10 50 30 70s43.333 30 70 30s50 -10 70 -30s30 -43.333 30 -70s-10 -50 -30 -70s-43.333 -30 -70 -30zM800 600c-26.667 0 -50 10 -70 30s-30 43.333 -30 70s10 50 30 70
s43.333 30 70 30s50 -10 70 -30s30 -43.333 30 -70s-10 -50 -30 -70s-43.333 -30 -70 -30zM1000 600c-26.667 0 -50 10 -70 30s-30 43.333 -30 70s10 50 30 70s43.333 30 70 30s50 -10 70 -30s30 -43.333 30 -70s-10 -50 -30 -70s-43.333 -30 -70 -30zM600 800
c-26.667 0 -50 10 -70 30s-30 43.333 -30 70s10 50 30 70s43.333 30 70 30s50 -10 70 -30s30 -43.333 30 -70s-10 -50 -30 -70s-43.333 -30 -70 -30zM600 1000c-26.667 0 -50 10 -70 30s-30 43.333 -30 70s10 50 30 70s43.333 30 70 30s50 -10 70 -30s30 -43.333 30 -70
s-10 -50 -30 -70s-43.333 -30 -70 -30zM600 1200c-26.667 0 -50 10 -70 30s-30 43.333 -30 70s10 50 30 70s43.333 30 70 30s50 -10 70 -30s30 -43.333 30 -70s-10 -50 -30 -70s-43.333 -30 -70 -30zM800 800c-26.667 0 -50 10 -70 30s-30 43.333 -30 70s10 50 30 70
s43.333 30 70 30s50 -10 70 -30s30 -43.333 30 -70s-10 -50 -30 -70s-43.333 -30 -70 -30zM800 1000c-26.667 0 -50 10 -70 30s-30 43.333 -30 70s10 50 30 70s43.333 30 70 30s50 -10 70 -30s30 -43.333 30 -70s-10 -50 -30 -70s-43.333 -30 -70 -30zM800 1200
c-26.667 0 -50 10 -70 30s-30 43.333 -30 70s10 50 30 70s43.333 30 70 30s50 -10 70 -30s30 -43.333 30 -70s-10 -50 -30 -70s-43.333 -30 -70 -30zM1000 800c-26.667 0 -50 10 -70 30s-30 43.333 -30 70s10 50 30 70s43.333 30 70 30s50 -10 70 -30s30 -43.333 30 -70
s-10 -50 -30 -70s-43.333 -30 -70 -30zM1000 1000c-26.667 0 -50 10 -70 30s-30 43.333 -30 70s10 50 30 70s43.333 30 70 30s50 -10 70 -30s30 -43.333 30 -70s-10 -50 -30 -70s-43.333 -30 -70 -30zM1000 1200c-26.667 0 -50 10 -70 30s-30 43.333 -30 70s10 50 30 70
s43.333 30 70 30s50 -10 70 -30s30 -43.333 30 -70s-10 -50 -30 -70s-43.333 -30 -70 -30zM200 0c-26.667 0 -50 10 -70 30s-30 43.333 -30 70s10 50 30 70s43.333 30 70 30s50 -10 70 -30s30 -43.333 30 -70s-10 -50 -30 -70s-43.333 -30 -70 -30z" />
    <glyph glyph-name="glyph48" 
d="M400 0c-26.667 0 -50 10 -70 30s-30 43.333 -30 70s10 50 30 70s43.333 30 70 30s50 -10 70 -30s30 -43.333 30 -70s-10 -50 -30 -70s-43.333 -30 -70 -30zM600 0c-26.667 0 -50 10 -70 30s-30 43.333 -30 70s10 50 30 70s43.333 30 70 30s50 -10 70 -30
s30 -43.333 30 -70s-10 -50 -30 -70s-43.333 -30 -70 -30zM800 0c-26.667 0 -50 10 -70 30s-30 43.333 -30 70s10 50 30 70s43.333 30 70 30s50 -10 70 -30s30 -43.333 30 -70s-10 -50 -30 -70s-43.333 -30 -70 -30zM1000 0c-26.667 0 -50 10 -70 30s-30 43.333 -30 70
s10 50 30 70s43.333 30 70 30s50 -10 70 -30s30 -43.333 30 -70s-10 -50 -30 -70s-43.333 -30 -70 -30zM200 200c-26.667 0 -50 10 -70 30s-30 43.333 -30 70s10 50 30 70s43.333 30 70 30s50 -10 70 -30s30 -43.333 30 -70s-10 -50 -30 -70s-43.333 -30 -70 -30zM600 200
c-26.667 0 -50 10 -70 30s-30 43.333 -30 70s10 50 30 70s43.333 30 70 30s50 -10 70 -30s30 -43.333 30 -70s-10 -50 -30 -70s-43.333 -30 -70 -30zM1000 200c-26.667 0 -50 10 -70 30s-30 43.333 -30 70s10 50 30 70s43.333 30 70 30s50 -10 70 -30s30 -43.333 30 -70
s-10 -50 -30 -70s-43.333 -30 -70 -30zM200 1000c-26.667 0 -50 10 -70 30s-30 43.333 -30 70s10 50 30 70s43.333 30 70 30s50 -10 70 -30s30 -43.333 30 -70s-10 -50 -30 -70s-43.333 -30 -70 -30zM200 1200c-26.667 0 -50 10 -70 30s-30 43.333 -30 70s10 50 30 70
s43.333 30 70 30s50 -10 70 -30s30 -43.333 30 -70s-10 -50 -30 -70s-43.333 -30 -70 -30zM1000 400c-26.667 0 -50 10 -70 30s-30 43.333 -30 70s10 50 30 70s43.333 30 70 30s50 -10 70 -30s30 -43.333 30 -70s-10 -50 -30 -70s-43.333 -30 -70 -30zM400 1200
c-26.667 0 -50 10 -70 30s-30 43.333 -30 70s10 50 30 70s43.333 30 70 30s50 -10 70 -30s30 -43.333 30 -70s-10 -50 -30 -70s-43.333 -30 -70 -30zM800 600c-26.667 0 -50 10 -70 30s-30 43.333 -30 70s10 50 30 70s43.333 30 70 30s50 -10 70 -30s30 -43.333 30 -70
s-10 -50 -30 -70s-43.333 -30 -70 -30zM1000 600c-26.667 0 -50 10 -70 30s-30 43.333 -30 70s10 50 30 70s43.333 30 70 30s50 -10 70 -30s30 -43.333 30 -70s-10 -50 -30 -70s-43.333 -30 -70 -30zM600 800c-26.667 0 -50 10 -70 30s-30 43.333 -30 70s10 50 30 70
s43.333 30 70 30s50 -10 70 -30s30 -43.333 30 -70s-10 -50 -30 -70s-43.333 -30 -70 -30zM800 1200c-26.667 0 -50 10 -70 30s-30 43.333 -30 70s10 50 30 70s43.333 30 70 30s50 -10 70 -30s30 -43.333 30 -70s-10 -50 -30 -70s-43.333 -30 -70 -30zM1000 800
c-26.667 0 -50 10 -70 30s-30 43.333 -30 70s10 50 30 70s43.333 30 70 30s50 -10 70 -30s30 -43.333 30 -70s-10 -50 -30 -70s-43.333 -30 -70 -30zM1000 1000c-26.667 0 -50 10 -70 30s-30 43.333 -30 70s10 50 30 70s43.333 30 70 30s50 -10 70 -30s30 -43.333 30 -70
s-10 -50 -30 -70s-43.333 -30 -70 -30zM1000 1200c-26.667 0 -50 10 -70 30s-30 43.333 -30 70s10 50 30 70s43.333 30 70 30s50 -10 70 -30s30 -43.333 30 -70s-10 -50 -30 -70s-43.333 -30 -70 -30zM200 0c-26.667 0 -50 10 -70 30s-30 43.333 -30 70s10 50 30 70
s43.333 30 70 30s50 -10 70 -30s30 -43.333 30 -70s-10 -50 -30 -70s-43.333 -30 -70 -30z" />
    <glyph glyph-name="glyph74" 
d="M400 0c-26.667 0 -50 10 -70 30s-30 43.333 -30 70s10 50 30 70s43.333 30 70 30s50 -10 70 -30s30 -43.333 30 -70s-10 -50 -30 -70s-43.333 -30 -70 -30zM600 0c-26.667 0 -50 10 -70 30s-30 43.333 -30 70s10 50 30 70s43.333 30 70 30s50 -10 70 -30
s30 -43.333 30 -70s-10 -50 -30 -70s-43.333 -30 -70 -30zM800 0c-26.667 0 -50 10 -70 30s-30 43.333 -30 70s10 50 30 70s43.333 30 70 30s50 -10 70 -30s30 -43.333 30 -70s-10 -50 -30 -70s-43.333 -30 -70 -30zM1000 0c-26.667 0 -50 10 -70 30s-30 43.333 -30 70
s10 50 30 70s43.333 30 70 30s50 -10 70 -30s30 -43.333 30 -70s-10 -50 -30 -70s-43.333 -30 -70 -30zM200 200c-26.667 0 -50 10 -70 30s-30 43.333 -30 70s10 50 30 70s43.333 30 70 30s50 -10 70 -30s30 -43.333 30 -70s-10 -50 -30 -70s-43.333 -30 -70 -30zM1000 200
c-26.667 0 -50 10 -70 30s-30 43.333 -30 70s10 50 30 70s43.333 30 70 30s50 -10 70 -30s30 -43.333 30 -70s-10 -50 -30 -70s-43.333 -30 -70 -30zM200 800c-26.667 0 -50 10 -70 30s-30 43.333 -30 70s10 50 30 70s43.333 30 70 30s50 -10 70 -30s30 -43.333 30 -70
s-10 -50 -30 -70s-43.333 -30 -70 -30zM200 600c-26.667 0 -50 10 -70 30s-30 43.333 -30 70s10 50 30 70s43.333 30 70 30s50 -10 70 -30s30 -43.333 30 -70s-10 -50 -30 -70s-43.333 -30 -70 -30zM200 1200c-26.667 0 -50 10 -70 30s-30 43.333 -30 70s10 50 30 70
s43.333 30 70 30s50 -10 70 -30s30 -43.333 30 -70s-10 -50 -30 -70s-43.333 -30 -70 -30zM400 400c-26.667 0 -50 10 -70 30s-30 43.333 -30 70s10 50 30 70s43.333 30 70 30s50 -10 70 -30s30 -43.333 30 -70s-10 -50 -30 -70s-43.333 -30 -70 -30zM400 -200
c-26.667 0 -50 10 -70 30s-30 43.333 -30 70s10 50 30 70s43.333 30 70 30s50 -10 70 -30s30 -43.333 30 -70s-10 -50 -30 -70s-43.333 -30 -70 -30zM800 -200c-26.667 0 -50 10 -70 30s-30 43.333 -30 70s10 50 30 70s43.333 30 70 30s50 -10 70 -30s30 -43.333 30 -70
s-10 -50 -30 -70s-43.333 -30 -70 -30zM400 800c-26.667 0 -50 10 -70 30s-30 43.333 -30 70s10 50 30 70s43.333 30 70 30s50 -10 70 -30s30 -43.333 30 -70s-10 -50 -30 -70s-43.333 -30 -70 -30zM1000 600c-26.667 0 -50 10 -70 30s-30 43.333 -30 70s10 50 30 70
s43.333 30 70 30s50 -10 70 -30s30 -43.333 30 -70s-10 -50 -30 -70s-43.333 -30 -70 -30zM600 1200c-26.667 0 -50 10 -70 30s-30 43.333 -30 70s10 50 30 70s43.333 30 70 30s50 -10 70 -30s30 -43.333 30 -70s-10 -50 -30 -70s-43.333 -30 -70 -30zM800 800
c-26.667 0 -50 10 -70 30s-30 43.333 -30 70s10 50 30 70s43.333 30 70 30s50 -10 70 -30s30 -43.333 30 -70s-10 -50 -30 -70s-43.333 -30 -70 -30zM1000 800c-26.667 0 -50 10 -70 30s-30 43.333 -30 70s10 50 30 70s43.333 30 70 30s50 -10 70 -30s30 -43.333 30 -70
s-10 -50 -30 -70s-43.333 -30 -70 -30zM200 0c-26.667 0 -50 10 -70 30s-30 43.333 -30 70s10 50 30 70s43.333 30 70 30s50 -10 70 -30s30 -43.333 30 -70s-10 -50 -30 -70s-43.333 -30 -70 -30z" />
  </font>
</defs>
</svg>
